<?xml version="1.0" standalone="no"?>
<!DOCTYPE svg PUBLIC "-//W3C//DTD SVG 20010904//EN"
 "http://www.w3.org/TR/2001/REC-SVG-20010904/DTD/svg10.dtd">
<svg version="1.0" xmlns="http://www.w3.org/2000/svg"
 width="300.000000pt" height="300.000000pt" viewBox="0 0 300.000000 300.000000"
 preserveAspectRatio="xMidYMid meet">
<metadata>
Created by potrace 1.11, written by Peter Selinger 2001-2013
</metadata>
<g transform="translate(0.000000,300.000000) scale(0.100000,-0.100000)"
fill="#000000" stroke="none">
<path d="M1241 2283 c-18 -9 -42 -31 -52 -47 -18 -30 -19 -65 -19 -736 0 -672
1 -706 19 -736 35 -57 65 -64 296 -64 163 0 204 3 198 13 -4 6 -8 53 -8 102 0
75 -4 96 -22 128 -13 21 -23 50 -23 63 0 17 -11 35 -32 52 -92 77 -193 183
-239 253 -28 43 -57 79 -65 81 -22 5 -84 146 -84 193 0 23 9 58 20 80 11 22
20 41 20 42 0 2 -13 3 -30 3 -39 0 -50 37 -28 95 88 225 113 259 201 270 67 9
82 26 72 85 -4 23 -2 41 4 45 6 3 11 17 11 31 0 13 9 33 20 44 l20 20 -122 0
c-94 0 -131 -4 -157 -17z"/>
<path d="M1605 2275 c14 -14 25 -34 25 -43 -1 -28 -18 -95 -27 -101 -4 -3 -18
-20 -31 -38 l-22 -32 22 -12 c12 -6 31 -20 42 -30 11 -11 23 -19 27 -19 22 0
49 -73 59 -159 6 -51 17 -106 25 -121 8 -16 20 -51 26 -78 7 -35 17 -53 34
-62 12 -7 28 -22 33 -34 8 -15 11 76 11 314 1 306 -1 338 -17 369 -27 51 -73
71 -160 71 l-73 0 26 -25z"/>
<path d="M1574 1836 c-12 -8 -29 -36 -38 -61 -16 -41 -17 -49 -3 -78 24 -51
44 -133 63 -257 11 -77 26 -133 44 -170 15 -30 33 -86 39 -123 7 -38 20 -84
30 -103 15 -28 17 -42 10 -68 -7 -24 -4 -55 7 -107 26 -116 27 -128 14 -144
-10 -12 -10 -15 2 -15 21 0 66 44 78 75 6 15 10 155 10 333 l0 306 -31 -30
c-25 -24 -39 -29 -79 -29 -43 0 -54 5 -82 33 -29 28 -33 39 -33 83 0 44 4 54
31 79 17 15 37 29 44 32 9 3 5 19 -15 57 -21 43 -54 157 -55 194 0 11 -13 8
-36 -7z"/>
</g>
</svg>
